<svg version="1.1" 
	xmlns="http://www.w3.org/2000/svg" 
	xmlns:xlink="http://www.w3.org/1999/xlink" x="0px" y="0px" width="20px" height="20px">
	<symbol id="sailaway" viewBox="0 0 100 100">
		<path d="M37.488,79.428
			c14.768-28.375,8.527-53.299-10.106-77.213c1.604,1.085,2.841,1.832,3.979,2.717c3.342,2.602,6.655,5.228,9.939,7.894
			c13.065,10.597,18.998,24.988,20.875,41.109c0.598,5.275-1.006,10.829-1.697,16.247c-0.098,0.656-0.652,1.588-1.227,1.788
			C52.143,74.48,44.994,76.882,37.488,79.428z"/>
		<path d="M52.338,89.569
			c9.05-10.659,13.296-22.871,11.826-36.866c-1.115-10.639-5.043-20.321-10.643-29.328c-2.873-4.639-6.216-8.985-9.877-14.211
			c3.81,2.98,7.084,5.355,10.138,7.986C65.619,27.321,74.47,39.566,77.801,54.99c1.379,6.404,1.149,13.167,1.556,19.765
			c0.174,2.75-1.057,4.794-3.686,5.921c-7.629,3.278-15.251,6.577-22.888,9.87C52.638,90.214,52.485,89.901,52.338,89.569z"/>
		<path d="M19.373,98.121
			C25.678,93.6,30.97,88.093,35.456,81.777c0.479-0.662,1.518-1.039,2.376-1.31c7.017-2.257,14.064-4.453,21.769-6.883
			c-1.753,3.418-3.339,6.559-4.967,9.687c-1.89,3.637-4.646,6.076-8.73,7.3c-8.779,2.643-17.471,5.605-26.2,8.429
			C19.595,98.707,19.485,98.412,19.373,98.121z"/>
	</symbol>
	<symbol id="sailaway2" viewBox="0 0 100 100">
		<path d="M37.488,79.428c14.768-28.375,8.527-53.299-10.106-77.213
				c1.604,1.085,2.841,1.832,3.979,2.717c3.342,2.602,6.655,5.228,9.939,7.894c13.065,10.597,18.998,24.988,20.875,41.109
				c0.598,5.275-1.006,10.829-1.697,16.247c-0.098,0.656-0.652,1.588-1.227,1.788C52.143,74.48,44.994,76.882,37.488,79.428z"/>
		<path d="M52.338,89.569c9.05-10.659,13.296-22.871,11.826-36.866
				c-1.115-10.639-5.043-20.321-10.643-29.328c-2.873-4.639-6.216-8.985-9.877-14.211c3.81,2.98,7.084,5.355,10.138,7.986
				C65.619,27.321,74.47,39.566,77.801,54.99c1.379,6.404,1.149,13.167,1.556,19.765c0.174,2.75-1.057,4.794-3.686,5.921
				c-7.629,3.278-15.251,6.577-22.888,9.87C52.638,90.214,52.485,89.901,52.338,89.569z"/>
		<path d="M19.373,98.121C25.678,93.6,30.97,88.093,35.456,81.777
				c0.479-0.662,1.518-1.039,2.376-1.31c7.017-2.257,14.064-4.453,21.769-6.883c-1.753,3.418-3.339,6.559-4.967,9.687
				c-1.89,3.637-4.646,6.076-8.73,7.3c-8.779,2.643-17.471,5.605-26.2,8.429C19.595,98.707,19.485,98.412,19.373,98.121z"/>
	</symbol>
	<symbol id="navigation" viewBox="0 0 512 512">
		<path d="M444.52 3.52L28.74 195.42c-47.97 22.39-31.98 92.75 19.19 92.75h175.91v175.91c0 51.17 70.36 67.17 92.75 19.19l191.9-415.78c15.99-38.39-25.59-79.97-63.97-63.97z"></path>
	</symbol>
</svg>
